# xmcd
#
# Track frame offsets:
#	150
#	13238
#	32243
#	47778
#	73200
#	86163
#	102804
#	118256
#	130369
#	147810
#	161185
#
# Disc length: 2316 seconds
#
# Revision: 1
# Processed by: cddbd v1.5.2PL0 Copyright (c) Steve Scherf et al.
# Submitted via: audiograbber 1.83.01
#
DISCID=a5090a0b
DTITLE=Timelesstyle - Timelesstyle 004
DYEAR=2006
DGENRE=Country
TTITLE0=High Me For The Coming F Hank  - Kevin Bradford
TTITLE1=Texas Woman  - Tommy Alverson
TTITLE2=Texas Cowboys Always Break Your Heart  - Sisters Of The Silver Sage
TTITLE3=Life With Lyndon  - Tim Scott
TTITLE4=Ready For Love  - Lis Talley
TTITLE5=A Man´s Broken Heart - Bobby Cargill 
TTITLE6=Bad Luck  - Luke Robinson
TTITLE7=Redneckville  - Duane Stailey
TTITLE8=Scarlett´s Boogie - Chris Booher
TTITLE9=Some People  - Dearl Hardy
TTITLE10=The Master´s Call - The Booher Brothers
EXTD=
EXTT0=
EXTT1=
EXTT2=
EXTT3=
EXTT4=
EXTT5=
EXTT6=
EXTT7=
EXTT8=
EXTT9=
EXTT10=
PLAYORDER=
